<?xml version="1.0" encoding="UTF-8" standalone="no"?>
<!-- Created with Inkscape (http://www.inkscape.org/) -->

<svg
   width="1024"
   height="1024"
   viewBox="0 0 1024 1024"
   version="1.1"
   id="svg1"
   xml:space="preserve"
   inkscape:version="1.3.2 (091e20ef0f, 2023-11-25)"
   sodipodi:docname="player_full.svg"
   xmlns:inkscape="http://www.inkscape.org/namespaces/inkscape"
   xmlns:sodipodi="http://sodipodi.sourceforge.net/DTD/sodipodi-0.dtd"
   xmlns="http://www.w3.org/2000/svg"
   xmlns:svg="http://www.w3.org/2000/svg"><sodipodi:namedview
     id="namedview1"
     pagecolor="#ffffff"
     bordercolor="#111111"
     borderopacity="1"
     inkscape:showpageshadow="0"
     inkscape:pageopacity="0"
     inkscape:pagecheckerboard="1"
     inkscape:deskcolor="#d1d1d1"
     inkscape:document-units="px"
     inkscape:zoom="0.86706334"
     inkscape:cx="475.74379"
     inkscape:cy="485.54699"
     inkscape:window-width="1920"
     inkscape:window-height="1008"
     inkscape:window-x="0"
     inkscape:window-y="0"
     inkscape:window-maximized="1"
     inkscape:current-layer="layer2" /><defs
     id="defs1"><linearGradient
       id="swatch55"
       inkscape:swatch="solid"><stop
         style="stop-color:#151911;stop-opacity:1;"
         offset="0"
         id="stop55" /></linearGradient></defs><g
     inkscape:groupmode="layer"
     id="layer2"
     inkscape:label="Draw"><path
       style="opacity:1;fill:#152711;fill-opacity:1;stroke:#000000;stroke-width:9;stroke-linecap:square;stroke-linejoin:round;stroke-miterlimit:0;stroke-dasharray:none;stroke-dashoffset:0;stroke-opacity:1;paint-order:markers stroke fill"
       d="m 355.96301,263.52556 c -4.98554,22.27219 19.99212,44.00561 12.33239,70.00938 -0.35131,1.19264 5.75163,7.05482 5.75163,7.05482 9.50306,-2.31346 9.32559,-45.86652 20.80473,-59.28059 11.02845,-12.88741 42.23332,73.1614 50.25896,52.51436 8.02563,-20.64704 18.91624,-84.20396 36.95574,-65.25865 18.0395,18.94532 92.06693,60.18557 92.06693,60.18557 0,0 -35.60535,-76.5201 -31.27984,-71.46144 44.72224,52.30253 85.06872,4.71305 104.98666,46.31926 23.01462,48.07483 26.33481,-58.00942 12.88398,-73.44511 -29.87364,-34.28191 -87.92525,-94.17484 -159.19429,-86.17832 -75.67224,8.49056 -136.80438,51.084 -141.41367,86.19376 -4.6093,35.10975 -4.15327,33.34696 -4.15327,33.34696 z"
       id="path27"
       inkscape:label="Hair1"
       sodipodi:nodetypes="cssssscssssscc" /></g></svg>
