<?xml version="1.0" encoding="UTF-8" standalone="no"?>
<!-- Created with Inkscape (http://www.inkscape.org/) -->

<svg
   width="1024"
   height="1024"
   viewBox="0 0 1024 1024"
   version="1.1"
   id="svg1"
   xml:space="preserve"
   inkscape:version="1.3.2 (091e20ef0f, 2023-11-25)"
   sodipodi:docname="player_full.svg"
   inkscape:export-filename="../parts/hand1r.svg"
   inkscape:export-xdpi="96"
   inkscape:export-ydpi="96"
   xmlns:inkscape="http://www.inkscape.org/namespaces/inkscape"
   xmlns:sodipodi="http://sodipodi.sourceforge.net/DTD/sodipodi-0.dtd"
   xmlns="http://www.w3.org/2000/svg"
   xmlns:svg="http://www.w3.org/2000/svg"><sodipodi:namedview
     id="namedview1"
     pagecolor="#ffffff"
     bordercolor="#111111"
     borderopacity="1"
     inkscape:showpageshadow="0"
     inkscape:pageopacity="0"
     inkscape:pagecheckerboard="1"
     inkscape:deskcolor="#d1d1d1"
     inkscape:document-units="px"
     inkscape:zoom="0.86706334"
     inkscape:cx="475.74379"
     inkscape:cy="485.54699"
     inkscape:window-width="1920"
     inkscape:window-height="1008"
     inkscape:window-x="0"
     inkscape:window-y="0"
     inkscape:window-maximized="1"
     inkscape:current-layer="layer2" /><defs
     id="defs1"><linearGradient
       id="swatch55"
       inkscape:swatch="solid"><stop
         style="stop-color:#151911;stop-opacity:1;"
         offset="0"
         id="stop55" /></linearGradient></defs><g
     inkscape:groupmode="layer"
     id="layer2"
     inkscape:label="Draw"><path
       style="display:inline;opacity:1;fill:#d1ad9a;fill-opacity:1;stroke:#000000;stroke-width:10;stroke-linecap:square;stroke-linejoin:round;stroke-miterlimit:0;stroke-dasharray:none;stroke-opacity:1;paint-order:markers stroke fill"
       d="m 557.34924,469.77584 c -12.026,14.24525 -10.38603,13.24559 -10.84469,21.75541 -0.45865,8.50982 18.96054,60.30657 21.43707,62.47918 2.47653,2.17262 57.32614,58.90003 60.83917,67.96162 3.51303,9.06159 18.41974,48.54027 22.64189,49.54738 4.22215,1.00711 70.11617,-15.04371 62.5493,-28.16876 -7.56687,-13.12507 -33.02843,-43.11145 -26.13843,-38.4355 6.88999,4.67596 31.58524,20.41124 34.09318,17.83517 2.50794,-2.57607 16.6075,-18.29152 8.50736,-20.81177 -8.10014,-2.52026 -59.10262,-20.73555 -64.64792,-26.10697 -5.54531,-5.37142 -29.0862,-26.32188 -31.33254,-33.68663 -2.24634,-7.36475 -5.48303,-27.44268 -11.60544,-34.99578 -6.1224,-7.5531 -29.11004,-36.23995 -34.60849,-38.37746 -5.49843,-2.1375 -31.2345,-2.59817 -30.89046,1.00411 z"
       id="path3"
       inkscape:label="HandL" /></g></svg>
