<?xml version="1.0" encoding="UTF-8" standalone="no"?>
<!-- Created with Inkscape (http://www.inkscape.org/) -->

<svg
   width="1024"
   height="1024"
   viewBox="0 0 1024 1024"
   version="1.1"
   id="svg1"
   xml:space="preserve"
   inkscape:version="1.3.2 (091e20ef0f, 2023-11-25)"
   sodipodi:docname="player_full.svg"
   inkscape:export-filename="shoes1r.svg"
   inkscape:export-xdpi="96"
   inkscape:export-ydpi="96"
   xmlns:inkscape="http://www.inkscape.org/namespaces/inkscape"
   xmlns:sodipodi="http://sodipodi.sourceforge.net/DTD/sodipodi-0.dtd"
   xmlns="http://www.w3.org/2000/svg"
   xmlns:svg="http://www.w3.org/2000/svg"><sodipodi:namedview
     id="namedview1"
     pagecolor="#ffffff"
     bordercolor="#111111"
     borderopacity="1"
     inkscape:showpageshadow="0"
     inkscape:pageopacity="0"
     inkscape:pagecheckerboard="1"
     inkscape:deskcolor="#d1d1d1"
     inkscape:document-units="px"
     inkscape:zoom="0.43353167"
     inkscape:cx="274.48975"
     inkscape:cy="991.85372"
     inkscape:window-width="1920"
     inkscape:window-height="1052"
     inkscape:window-x="0"
     inkscape:window-y="0"
     inkscape:window-maximized="1"
     inkscape:current-layer="layer2" /><defs
     id="defs1"><linearGradient
       id="swatch55"
       inkscape:swatch="solid"><stop
         style="stop-color:#151911;stop-opacity:1;"
         offset="0"
         id="stop55" /></linearGradient><clipPath
       clipPathUnits="userSpaceOnUse"
       id="clipPath51"><path
         id="path51"
         style="stroke-width:0.0999999;stroke-linecap:square;paint-order:markers fill stroke;stop-color:#000000"
         d="m 1806.4991,-753.5228 h 1637.2646 v 66.90533 H 1806.4991 Z" /></clipPath><clipPath
       clipPathUnits="userSpaceOnUse"
       id="clipPath55"><path
         id="path55"
         style="stroke-width:0.1;stroke-linecap:square;paint-order:markers fill stroke;stop-color:#000000"
         d="m 1736.6147,-745.57287 h 1589.4765 v 72.46715 H 1736.6147 Z" /></clipPath><clipPath
       clipPathUnits="userSpaceOnUse"
       id="clipPath54"><path
         id="path54"
         style="stroke-width:0.0999999;stroke-linecap:square;paint-order:markers fill stroke;stop-color:#000000"
         d="m 1691.1994,-792.32001 h 1634.8919 v 92.82806 H 1691.1994 Z" /></clipPath></defs><g
     inkscape:groupmode="layer"
     id="layer2"
     inkscape:label="Draw"><path
       style="display:inline;opacity:1;fill:#d1ad9a;fill-opacity:1;stroke:#000000;stroke-width:9;stroke-linecap:square;stroke-linejoin:round;stroke-miterlimit:0;paint-order:markers stroke fill"
       d="m 542.39218,770.4524 c 1.38706,14.41224 -1.24082,40.48867 -11.2998,54.66969 -5.8441,8.23895 -9.39503,21.17594 -6.0586,26.61734 5.71588,9.32206 44.84696,1.43102 75.45409,6.83585 44.08704,7.78521 88.85605,-1.69114 91.41044,-5.29144 5.16701,-7.28267 -6.55383,-13.50385 -6.55383,-13.50385 -32.43081,-4.50559 -48.26816,-6.81699 -60.86618,-18.36394 -10.35166,-9.48801 6.107,-48.985 1.43074,-57.49868 -3.62267,-6.59549 -85.55266,-5.95081 -84.91592,-0.0789 0.63677,5.87193 1.39903,6.61389 1.39903,6.61389 z"
       id="path2"
       sodipodi:nodetypes="csssscssscc"
       inkscape:label="FootL" /><path
       style="display:inline;opacity:1;fill:#d1ad9a;fill-opacity:1;stroke:#000000;stroke-width:10;stroke-linecap:square;stroke-linejoin:round;stroke-miterlimit:0;stroke-dasharray:none;stroke-opacity:1;paint-order:markers stroke fill"
       d="m 522.70726,666.53676 c 0,0 6.19168,108.61331 18.28026,117.49785 12.08857,8.88454 86.01972,7.72016 86.13271,-3.2069 0.11298,-10.92707 0.0315,-124.79873 -6.8052,-124.24459 -6.83667,0.55414 -97.60777,9.95364 -97.60777,9.95364 z"
       id="path13"
       inkscape:label="LegL" /><path
       style="display:inline;opacity:1;fill:#4c4c4c;fill-opacity:1;stroke:#000000;stroke-width:10;stroke-linecap:square;stroke-linejoin:round;stroke-miterlimit:0;stroke-dasharray:none;stroke-opacity:1;paint-order:markers stroke fill"
       d="m 535.1506,788.85524 c 0,0 -41.34844,67.6125 -18.39203,69.53272 22.95639,1.92023 183.61517,21.69934 181.26776,4.76506 -2.3474,-16.93427 3.09803,-38.393 -16.67667,-46.24733 -19.77469,-7.85434 -62.46254,-12.54106 -49.47703,-32.10045 3.66734,-5.52391 -90.70913,13.21157 -96.72203,4.05 z"
       id="path14"
       inkscape:label="ShoesL"
       sodipodi:nodetypes="cssssc" /><path
       style="display:inline;opacity:1;fill:#d1ad9a;fill-opacity:1;stroke:#000000;stroke-width:9;stroke-linecap:square;stroke-linejoin:round;stroke-miterlimit:0;paint-order:markers stroke fill"
       d="m 436.46363,780.60795 c -0.0498,14.47875 -5.25207,40.16576 -16.66848,53.27872 -6.63275,7.61843 -11.4498,20.13925 -8.66974,25.88485 4.76272,9.8432 44.48366,5.87377 74.40348,14.28884 43.09702,12.12121 88.58537,7.1337 91.48438,3.80462 5.86412,-6.73405 -5.1816,-14.0875 -5.1816,-14.0875 -31.82372,-7.70121 -47.35358,-11.57263 -58.74371,-24.3126 -9.35916,-10.4683 10.93726,-48.13732 7.12882,-57.07298 -2.95037,-6.92239 -84.54003,-14.41017 -84.48906,-8.50402 0.051,5.90614 0.73588,6.72007 0.73588,6.72007 z"
       id="path1"
       sodipodi:nodetypes="csssscssscc"
       inkscape:label="FootR" /><path
       style="display:inline;opacity:1;fill:#d1ad9a;fill-opacity:1;stroke:#000000;stroke-width:10;stroke-linecap:square;stroke-linejoin:round;stroke-miterlimit:0;stroke-dasharray:none;stroke-opacity:1;paint-order:markers stroke fill"
       d="m 427.34853,673.71748 c 0,0 -2.6034,108.7585 8.72788,118.59063 11.33128,9.83213 85.11483,14.64444 86.11024,3.76222 0.99541,-10.88222 10.11383,-124.38824 3.25474,-124.38824 -6.85909,0 -98.09286,2.03539 -98.09286,2.03539 z"
       id="path11"
       inkscape:label="LegR" /><path
       style="display:inline;opacity:1;fill:#4c4c4c;fill-opacity:1;stroke:#000000;stroke-width:10;stroke-linecap:square;stroke-linejoin:round;stroke-miterlimit:0;stroke-dasharray:none;stroke-opacity:1;paint-order:markers stroke fill"
       d="m 429.17543,796.87448 c -0.90142,1.25517 -1.93335,11.06724 -9.82578,21.86709 -11.85415,16.221 -26.88197,43.81399 -13.12234,46.09569 22.72622,3.76859 181.26188,36.46263 180.29026,19.39406 -0.97161,-17.06856 6.18967,-38.01721 -12.88584,-47.44346 -19.0755,-9.42626 -61.24517,-17.5464 -46.72191,-35.99275 4.10162,-5.20957 -92.4813,5.69677 -97.73439,-3.92063 z"
       id="path9"
       inkscape:label="ShoesR"
       sodipodi:nodetypes="csssssc" /><path
       style="display:inline;opacity:1;fill:#d1ad9a;fill-opacity:1;stroke:#000000;stroke-width:10;stroke-linecap:square;stroke-linejoin:round;stroke-miterlimit:0;stroke-dasharray:none;stroke-opacity:1;paint-order:markers stroke fill"
       d="m 557.34924,469.77584 c -12.026,14.24525 -10.38603,13.24559 -10.84469,21.75541 -0.45865,8.50982 18.96054,60.30657 21.43707,62.47918 2.47653,2.17262 57.32614,58.90003 60.83917,67.96162 3.51303,9.06159 18.41974,48.54027 22.64189,49.54738 4.22215,1.00711 70.11617,-15.04371 62.5493,-28.16876 -7.56687,-13.12507 -33.02843,-43.11145 -26.13843,-38.4355 6.88999,4.67596 31.58524,20.41124 34.09318,17.83517 2.50794,-2.57607 16.6075,-18.29152 8.50736,-20.81177 -8.10014,-2.52026 -59.10262,-20.73555 -64.64792,-26.10697 -5.54531,-5.37142 -29.0862,-26.32188 -31.33254,-33.68663 -2.24634,-7.36475 -5.48303,-27.44268 -11.60544,-34.99578 -6.1224,-7.5531 -29.11004,-36.23995 -34.60849,-38.37746 -5.49843,-2.1375 -31.2345,-2.59817 -30.89046,1.00411 z"
       id="path3"
       inkscape:label="HandL" /><path
       style="display:none;opacity:1;fill:#758949;fill-opacity:1;stroke:#000000;stroke-width:10;stroke-linecap:square;stroke-linejoin:round;stroke-miterlimit:0;stroke-dasharray:none;stroke-opacity:1;paint-order:markers stroke fill"
       d="m 525.75168,805.94428 c 0,0 124.01511,-20.57217 122.02777,-27.47462 -1.98734,-6.90244 -28.99216,-136.95607 -28.99216,-136.95607 l -99.17915,6.50146 c 0,0 2.385,158.68478 6.14354,157.92923 z"
       id="path5"
       inkscape:label="PantL"
       inkscape:transform-center-x="2.6479514"
       inkscape:transform-center-y="-1.8839264"
       sodipodi:nodetypes="csccc" /><path
       style="display:none;opacity:1;fill:#758949;fill-opacity:1;stroke:#000000;stroke-width:10;stroke-linecap:square;stroke-linejoin:round;stroke-miterlimit:0;stroke-dasharray:none;stroke-opacity:1;paint-order:markers stroke fill"
       d="m 412.66269,815.17077 c 0,0 125.69818,-1.71196 124.77012,-8.8346 -0.92807,-7.12264 -6.50971,-151.64784 -6.50971,-151.64784 l -100.68132,2.72561 c 0,0 -21.40847,157.93929 -17.57909,157.75683 z"
       id="path8"
       inkscape:label="PantR"
       sodipodi:nodetypes="csccc" /><path
       style="display:inline;opacity:1;fill:#000000;fill-opacity:1;stroke:#000000;stroke-width:10;stroke-linecap:square;stroke-linejoin:round;stroke-miterlimit:0;stroke-dasharray:none;stroke-opacity:1;paint-order:markers stroke fill"
       d="m 563.14369,445.62687 c 0,0 57.79657,39.3232 59.7045,61.52232 1.90793,22.19912 16.7569,159.89001 9.22654,163.42881 -7.53035,3.53879 -214.2176,29.90743 -219.04712,22.49421 -4.82952,-7.41323 -56.12325,-207.06109 -22.48317,-226.67726 15.12696,-8.82082 108.24319,-61.3302 172.59925,-20.76808 z"
       id="path4"
       inkscape:label="Body"
       sodipodi:nodetypes="cssssc" /><path
       style="display:inline;opacity:1;fill:#d1ad9a;fill-opacity:1;stroke:#000000;stroke-width:10;stroke-linecap:square;stroke-linejoin:round;stroke-miterlimit:0;stroke-dasharray:none;stroke-opacity:1;paint-order:markers stroke fill"
       d="m 399.81784,469.59888 c -18.54351,1.92093 -16.66877,2.33825 -22.90144,8.15041 -6.23267,5.81217 -28.16886,56.59417 -27.89171,59.87695 0.27715,3.28278 0.44439,82.19064 -3.30986,91.15498 -3.75426,8.96434 -20.39754,47.74291 -18.05451,51.39682 2.34302,3.65391 60.94413,37.79422 64.59644,23.09098 3.65232,-14.70324 6.10843,-53.96444 7.82867,-45.81721 1.72023,8.14723 8.5964,36.61076 12.18978,36.49449 3.59338,-0.11628 24.65034,-1.65812 20.56319,-9.09177 -4.08715,-7.43365 -28.19435,-55.92996 -28.46353,-63.64554 -0.26919,-7.71557 -2.69663,-39.13536 0.79322,-45.99878 3.48985,-6.86342 15.08392,-23.57201 15.91218,-33.25949 0.82826,-9.68747 4.1652,-46.29664 1.68678,-51.65008 -2.47841,-5.35343 -20.69857,-23.53537 -22.94921,-20.70176 z"
       id="path7"
       inkscape:label="HandR" /><path
       style="display:inline;opacity:1;fill:#d1ad9a;fill-opacity:1;stroke:#000000;stroke-width:10;stroke-linecap:square;stroke-linejoin:round;stroke-miterlimit:0;stroke-dasharray:none;stroke-opacity:1;paint-order:markers stroke fill"
       d="m 387.96321,359.35776 c 0.57666,3.27299 43.04445,90.49043 129.47574,88.16578 86.4313,-2.32466 132.09099,-58.45207 132.76225,-92.39161 0.67127,-33.93955 3.86092,-134.91121 -15.73648,-153.88915 -19.5974,-18.97794 -65.3517,-52.62916 -102.71066,-51.59748 -37.35895,1.03168 -95.94166,6.8208 -121.9589,41.47891 -26.01724,34.65812 -47.9438,113.94199 -21.83195,168.23355 z"
       id="path6"
       inkscape:label="Head" /><path
       style="display:inline;opacity:1;fill:#e4e7e6;fill-opacity:1;stroke:#000000;stroke-width:10;stroke-linecap:square;stroke-linejoin:round;stroke-miterlimit:0;stroke-dasharray:none;stroke-opacity:1;paint-order:markers stroke fill"
       d="m 495.72413,383.63151 c 0,0 113.32253,-1.62186 110.34238,7.6993 -2.98016,9.32115 7.3952,25.96543 -13.96146,27.2584 -21.35666,1.29298 -106.17511,5.28454 -103.20172,-3.47347 2.9734,-8.75801 6.8208,-31.48423 6.8208,-31.48423 z"
       id="path15"
       inkscape:label="Mouth" /><path
       style="opacity:1;fill:#e4e7e6;fill-opacity:1;stroke:#000000;stroke-width:4;stroke-linecap:square;stroke-linejoin:round;stroke-miterlimit:0;stroke-dasharray:none;stroke-opacity:1;paint-order:markers stroke fill"
       d="m 524.06152,391.61012 -3.76405,20.61557"
       id="path16"
       inkscape:label="Teeth1" /><path
       style="opacity:1;fill:#e4e7e6;fill-opacity:1;stroke:#000000;stroke-width:4.1;stroke-linecap:square;stroke-linejoin:round;stroke-miterlimit:0;stroke-dasharray:none;stroke-opacity:1;paint-order:markers stroke fill"
       d="M 543.37305,391.76588 539.609,412.38145"
       id="path17"
       inkscape:label="Teeth2" /><path
       style="opacity:1;fill:#e4e7e6;fill-opacity:1;stroke:#000000;stroke-width:3;stroke-linecap:square;stroke-linejoin:round;stroke-miterlimit:0;stroke-dasharray:none;stroke-opacity:1;paint-order:markers stroke fill"
       d="m 503.44992,401.55601 76.08221,1.03532"
       id="path19"
       inkscape:label="Teeth3" /><path
       style="display:inline;opacity:1;fill:#e4e7e6;fill-opacity:1;stroke:#000000;stroke-width:9;stroke-linecap:square;stroke-linejoin:round;stroke-miterlimit:0;stroke-dasharray:none;stroke-dashoffset:0;stroke-opacity:1;paint-order:markers stroke fill"
       d="m 501.92965,331.14698 c 0,0 5.20521,25.56302 20.24984,24.33815 15.04464,-1.22487 33.20659,-8.59799 30.97666,-18.62155 -2.22994,-10.02356 -9.23812,-24.14383 -22.21175,-22.5558 -12.97363,1.58803 -29.01475,11.35993 -29.01475,16.8392 z"
       id="path21"
       inkscape:label="EyeR" /><path
       style="display:inline;opacity:1;fill:#e4e7e6;fill-opacity:1;stroke:#000000;stroke-width:9;stroke-linecap:square;stroke-linejoin:round;stroke-miterlimit:0;stroke-dasharray:none;stroke-dashoffset:0;stroke-opacity:1;paint-order:markers stroke fill"
       d="m 632.98326,331.14698 c 0,0 -5.20521,25.56302 -20.24984,24.33815 -15.04464,-1.22487 -33.20659,-8.59799 -30.97666,-18.62155 2.22994,-10.02356 9.23812,-24.14383 22.21175,-22.5558 12.97363,1.58803 29.01475,11.35993 29.01475,16.8392 z"
       id="path22"
       inkscape:label="EyeL" /><path
       style="opacity:1;fill:#151911;fill-opacity:1;stroke:#000000;stroke-width:0;stroke-linecap:square;stroke-linejoin:round;stroke-miterlimit:0;stroke-dasharray:none;stroke-dashoffset:0;stroke-opacity:1;paint-order:markers stroke fill"
       d="m 522.88318,332.78757 c 0,0 -3.36401,15.13011 4.17954,13.74437 7.54355,-1.38575 12.90814,-7.52125 10.93942,-12.98619 -1.96871,-5.46493 -14.36874,-4.37864 -15.11896,-0.75818 z"
       id="path23"
       inkscape:label="PupilR" /><path
       style="opacity:1;fill:#151911;fill-opacity:1;stroke:#000000;stroke-width:0;stroke-linecap:square;stroke-linejoin:round;stroke-miterlimit:0;stroke-dasharray:none;stroke-dashoffset:0;stroke-opacity:1;paint-order:markers stroke fill"
       d="m 599.88933,332.78757 c 0,0 -3.36401,15.13011 4.17954,13.74437 7.54355,-1.38575 12.90814,-7.52125 10.93942,-12.98619 -1.96871,-5.46493 -14.36874,-4.37864 -15.11896,-0.75818 z"
       id="path24"
       inkscape:label="PupilR" /><path
       style="opacity:1;fill:#151911;fill-opacity:1;stroke:#000000;stroke-width:9;stroke-linecap:square;stroke-linejoin:round;stroke-miterlimit:0;stroke-dasharray:none;stroke-dashoffset:0;stroke-opacity:1;paint-order:markers stroke fill"
       d="m 478.06308,326.74604 c 0,0 85.94011,14.40857 81.7096,10.3915 -4.2305,-4.01707 -22.73259,-39.14333 -70.75425,-36.2906 z"
       id="path25"
       inkscape:label="EyebrowR" /><path
       style="opacity:1;fill:#151911;fill-opacity:1;stroke:#000000;stroke-width:9;stroke-linecap:square;stroke-linejoin:round;stroke-miterlimit:0;stroke-dasharray:none;stroke-dashoffset:0;stroke-opacity:1;paint-order:markers stroke fill"
       d="m 656.33087,326.4251 c 0,0 -85.94011,14.40857 -81.7096,10.3915 4.2305,-4.01707 22.73259,-39.14333 70.75425,-36.2906 z"
       id="path26"
       inkscape:label="EyebrowL" /><path
       style="opacity:1;fill:#152711;fill-opacity:1;stroke:#000000;stroke-width:9;stroke-linecap:square;stroke-linejoin:round;stroke-miterlimit:0;stroke-dasharray:none;stroke-dashoffset:0;stroke-opacity:1;paint-order:markers stroke fill"
       d="m 355.96301,263.52556 c -4.98554,22.27219 19.99212,44.00561 12.33239,70.00938 -0.35131,1.19264 5.75163,7.05482 5.75163,7.05482 9.50306,-2.31346 9.32559,-45.86652 20.80473,-59.28059 11.02845,-12.88741 42.23332,73.1614 50.25896,52.51436 8.02563,-20.64704 18.91624,-84.20396 36.95574,-65.25865 18.0395,18.94532 92.06693,60.18557 92.06693,60.18557 0,0 -35.60535,-76.5201 -31.27984,-71.46144 44.72224,52.30253 85.06872,4.71305 104.98666,46.31926 23.01462,48.07483 26.33481,-58.00942 12.88398,-73.44511 -29.87364,-34.28191 -87.92525,-94.17484 -159.19429,-86.17832 -75.67224,8.49056 -136.80438,51.084 -141.41367,86.19376 -4.6093,35.10975 -4.15327,33.34696 -4.15327,33.34696 z"
       id="path27"
       inkscape:label="Hair1"
       sodipodi:nodetypes="cssssscssssscc" /></g></svg>
