<?xml version="1.0" encoding="UTF-8" standalone="no"?>
<!-- Created with Inkscape (http://www.inkscape.org/) -->

<svg
   width="32"
   height="32"
   viewBox="0 0 32 32"
   version="1.1"
   id="svg1"
   xml:space="preserve"
   sodipodi:docname="icon.svg"
   xmlns:inkscape="http://www.inkscape.org/namespaces/inkscape"
   xmlns:sodipodi="http://sodipodi.sourceforge.net/DTD/sodipodi-0.dtd"
   xmlns="http://www.w3.org/2000/svg"
   xmlns:svg="http://www.w3.org/2000/svg"><sodipodi:namedview
     id="namedview1"
     pagecolor="#ffffff"
     bordercolor="#111111"
     borderopacity="1"
     inkscape:showpageshadow="0"
     inkscape:pageopacity="0"
     inkscape:pagecheckerboard="1"
     inkscape:deskcolor="#d1d1d1" /><defs
     id="defs1" /><g
     id="layer2"
     transform="matrix(0.04008883,0,0,0.04008883,-5.6774945,3.9759429)"><path
       style="display:none;opacity:1;fill:#d1ad9a;fill-opacity:1;stroke:#000000;stroke-width:11.4469;stroke-linecap:square;stroke-linejoin:round;stroke-miterlimit:0;paint-order:markers stroke fill"
       d="m 533.06589,829.96393 c 1.76417,18.33055 -1.57817,51.49651 -14.37193,69.53299 -7.43296,10.47891 -11.9493,26.93313 -7.70578,33.85391 7.26989,11.85649 57.03971,1.82005 95.96815,8.6944 56.07318,9.90177 113.01375,-2.15102 116.26261,-6.73009 6.57178,-9.26265 -8.33565,-17.17521 -8.33565,-17.17521 -41.24792,-5.73055 -61.39105,-8.67036 -77.41414,-23.35664 -13.16602,-12.06755 7.76733,-62.30277 1.81972,-73.1311 -4.60759,-8.38864 -108.81227,-7.56869 -108.00241,-0.10032 0.8099,7.46836 1.77939,8.41205 1.77939,8.41205 z"
       id="path2" /><path
       style="display:none;opacity:1;fill:#d1ad9a;fill-opacity:1;stroke:#000000;stroke-width:12.7188;stroke-linecap:square;stroke-linejoin:round;stroke-miterlimit:0;stroke-dasharray:none;stroke-opacity:1;paint-order:markers stroke fill"
       d="m 508.02913,697.79625 c 0,0 7.87505,138.14252 23.25021,149.44254 15.37514,11.30002 109.40629,9.81908 109.55,-4.07877 0.1437,-13.89787 0.0401,-158.72834 -8.65535,-158.02354 -8.69539,0.70479 -124.14486,12.65977 -124.14486,12.65977 z"
       id="path13" /><path
       style="display:none;opacity:1;fill:#4c4c4c;fill-opacity:1;stroke:#000000;stroke-width:12.7188;stroke-linecap:square;stroke-linejoin:round;stroke-miterlimit:0;stroke-dasharray:none;stroke-opacity:1;paint-order:markers stroke fill"
       d="m 523.8555,853.37003 c 0,0 -52.59002,85.99467 -23.39235,88.43695 29.19765,2.44227 233.53547,27.59877 230.54986,6.06054 -2.9856,-21.5383 3.94031,-48.83111 -21.21063,-58.82083 -25.15093,-9.98974 -79.44452,-15.95066 -62.92858,-40.82775 4.6644,-7.02572 -115.37064,16.80346 -123.0183,5.15109 z"
       id="path14" /><path
       style="display:none;opacity:1;fill:#d1ad9a;fill-opacity:1;stroke:#000000;stroke-width:11.4469;stroke-linecap:square;stroke-linejoin:round;stroke-miterlimit:0;paint-order:markers stroke fill"
       d="m 398.33806,842.88051 c -0.0633,18.41515 -6.67998,51.08581 -21.20022,67.76385 -8.43603,9.68969 -14.56272,25.61462 -11.02683,32.92227 6.05759,12.51929 56.57764,7.47067 94.6319,18.17361 54.81401,15.4167 112.66948,9.07321 116.35667,4.83903 7.45842,-8.56488 -6.59035,-17.91754 -6.59035,-17.91754 -40.47578,-9.79493 -60.22782,-14.71894 -74.71464,-30.92258 -11.90368,-13.31437 13.91083,-61.22464 9.06697,-72.58968 -3.7525,-8.80441 -107.52431,-18.32793 -107.45949,-10.81605 0.0649,7.51187 0.93594,8.54709 0.93594,8.54709 z"
       id="path1" /><path
       style="display:none;opacity:1;fill:#d1ad9a;fill-opacity:1;stroke:#000000;stroke-width:12.7188;stroke-linecap:square;stroke-linejoin:round;stroke-miterlimit:0;stroke-dasharray:none;stroke-opacity:1;paint-order:markers stroke fill"
       d="m 386.74479,706.92923 c 0,0 -3.3112,138.32719 11.10077,150.83242 14.41197,12.50523 108.25539,18.62588 109.52143,4.78507 1.26604,-13.84082 12.86352,-158.20625 4.13962,-158.20625 -8.72391,0 -124.76182,2.58876 -124.76182,2.58876 z"
       id="path11" /><path
       style="display:none;opacity:1;fill:#4c4c4c;fill-opacity:1;stroke:#000000;stroke-width:12.7188;stroke-linecap:square;stroke-linejoin:round;stroke-miterlimit:0;stroke-dasharray:none;stroke-opacity:1;paint-order:markers stroke fill"
       d="m 389.06837,863.5695 c -1.14649,1.59642 -2.45898,14.07614 -12.49716,27.81219 -15.07698,20.63108 -34.19049,55.72586 -16.68997,58.62799 28.90491,4.79309 230.54239,46.37586 229.30661,24.66676 -1.23576,-21.70909 7.87249,-48.35312 -16.38917,-60.34213 -24.26164,-11.98902 -77.89617,-22.31682 -59.42441,-45.77827 5.21674,-6.62592 -117.62463,7.24559 -124.3059,-4.98654 z"
       id="path9" /><path
       style="display:none;opacity:1;fill:#d1ad9a;fill-opacity:1;stroke:#000000;stroke-width:12.7188;stroke-linecap:square;stroke-linejoin:round;stroke-miterlimit:0;stroke-dasharray:none;stroke-opacity:1;paint-order:markers stroke fill"
       d="m 552.08939,447.54104 c -15.29556,18.11817 -13.20973,16.84672 -13.79308,27.67015 -0.58335,10.82343 24.11543,76.7024 27.26526,79.46569 3.14984,2.7633 72.91166,74.91345 77.3798,86.43866 4.46813,11.5252 23.4276,61.73713 28.79765,63.01805 5.37004,1.28092 89.17897,-19.13371 79.55486,-35.82713 -9.6241,-16.69344 -42.00802,-54.83236 -33.24481,-48.88514 8.76321,5.94724 40.17247,25.96054 43.36225,22.6841 3.18979,-3.27643 21.12267,-23.26451 10.8203,-26.46996 -10.30236,-3.20545 -75.17112,-26.37301 -82.22405,-33.20479 -7.05294,-6.83177 -36.994,-33.47813 -39.85106,-42.84517 -2.85707,-9.36704 -6.97373,-34.90365 -14.76066,-44.51025 -7.78693,-9.60659 -37.02432,-46.09267 -44.01766,-48.81131 -6.99332,-2.71864 -39.72637,-3.30455 -39.2888,1.2771 z"
       id="path3" /><path
       style="display:none;opacity:1;fill:#758949;fill-opacity:1;stroke:#000000;stroke-width:10;stroke-linecap:square;stroke-linejoin:round;stroke-miterlimit:0;stroke-dasharray:none;stroke-opacity:1;paint-order:markers stroke fill"
       d="m 525.75168,805.94428 c 0,0 124.01511,-20.57217 122.02777,-27.47462 -1.98734,-6.90244 -28.99216,-136.95607 -28.99216,-136.95607 l -99.17915,6.50146 c 0,0 2.385,158.68478 6.14354,157.92923 z"
       id="path5" /><path
       style="display:none;opacity:1;fill:#758949;fill-opacity:1;stroke:#000000;stroke-width:10;stroke-linecap:square;stroke-linejoin:round;stroke-miterlimit:0;stroke-dasharray:none;stroke-opacity:1;paint-order:markers stroke fill"
       d="m 412.66269,815.17077 c 0,0 125.69818,-1.71196 124.77012,-8.8346 -0.92807,-7.12264 -6.50971,-151.64784 -6.50971,-151.64784 l -100.68132,2.72561 c 0,0 -21.40847,157.93929 -17.57909,157.75683 z"
       id="path8" /><path
       style="display:none;opacity:1;fill:#000000;fill-opacity:1;stroke:#000000;stroke-width:12.7188;stroke-linecap:square;stroke-linejoin:round;stroke-miterlimit:0;stroke-dasharray:none;stroke-opacity:1;paint-order:markers stroke fill"
       d="m 559.45921,416.82657 c 0,0 73.50999,50.01419 75.93664,78.24868 2.42664,28.2345 21.31268,203.36005 11.73499,207.86096 -9.57766,4.5009 -272.45792,38.0385 -278.60047,28.60982 -6.14254,-9.42871 -71.38173,-263.35575 -28.59576,-288.30506 19.23959,-11.21897 137.67176,-78.00433 219.5246,-26.4144 z"
       id="path4" /><path
       style="display:none;opacity:1;fill:#d1ad9a;fill-opacity:1;stroke:#000000;stroke-width:12.7188;stroke-linecap:square;stroke-linejoin:round;stroke-miterlimit:0;stroke-dasharray:none;stroke-opacity:1;paint-order:markers stroke fill"
       d="m 351.7292,447.31597 c -23.58501,2.44318 -21.20058,2.97396 -29.12776,10.3663 -7.92717,7.39235 -35.82725,71.98069 -35.47475,76.15597 0.3525,4.17529 0.56521,104.53619 -4.20973,115.9377 -4.77495,11.40153 -25.94311,60.723 -22.96307,65.37032 2.98002,4.64731 77.51329,48.06951 82.15857,29.36883 4.6453,-18.70068 7.76916,-68.63601 9.95708,-58.27374 2.18792,10.36225 10.93354,46.56429 15.50388,46.4164 4.57032,-0.14789 31.35214,-2.10891 26.15379,-11.56359 -5.19834,-9.45466 -35.85967,-71.13589 -36.20204,-80.94914 -0.34237,-9.81324 -3.42977,-49.77527 1.00889,-58.50469 4.43864,-8.7294 19.18484,-29.98063 20.23829,-42.30189 1.05344,-12.32125 5.29761,-58.88353 2.14537,-65.69243 -3.15223,-6.80889 -26.32599,-29.93404 -29.18852,-26.33004 z"
       id="path7" /><path
       style="display:inline;opacity:1;fill:#d1ad9a;fill-opacity:1;stroke:#000000;stroke-width:20.0028;stroke-linecap:square;stroke-linejoin:round;stroke-miterlimit:0;stroke-dasharray:none;stroke-opacity:1;paint-order:markers stroke fill"
       d="m 289.62951,421.47675 c 1.15348,6.54687 86.10049,181.00524 258.98636,176.35531 172.88586,-4.64995 264.21754,-116.91988 265.56025,-184.80811 1.34272,-67.88824 7.7229,-269.85874 -31.47719,-307.81976 C 743.49885,67.243203 651.97793,-0.0682925 577.24995,1.9953347 502.52199,4.0589797 385.3408,15.638782 333.29929,84.964352 281.25781,154.28992 237.39879,312.87902 289.62951,421.47675 Z"
       id="path6" /><path
       style="display:inline;opacity:1;fill:#e4e7e6;fill-opacity:1;stroke:#000000;stroke-width:20.0028;stroke-linecap:square;stroke-linejoin:round;stroke-miterlimit:0;stroke-dasharray:none;stroke-opacity:1;paint-order:markers stroke fill"
       d="m 505.18038,470.03079 c 0,0 226.67557,-3.24416 220.71448,15.40067 -5.96112,18.64482 14.79239,51.93787 -27.92668,54.52414 -42.71906,2.58632 -212.37882,10.57052 -206.43124,-6.94788 5.9476,-17.51836 13.64344,-62.97693 13.64344,-62.97693 z"
       id="path15" /><path
       style="opacity:1;fill:#e4e7e6;fill-opacity:1;stroke:#000000;stroke-width:8.00107;stroke-linecap:square;stroke-linejoin:round;stroke-miterlimit:0;stroke-dasharray:none;stroke-opacity:1;paint-order:markers stroke fill"
       d="m 561.86278,485.99016 -7.5291,41.2367"
       id="path16" /><path
       style="opacity:1;fill:#e4e7e6;fill-opacity:1;stroke:#000000;stroke-width:8.2011;stroke-linecap:square;stroke-linejoin:round;stroke-miterlimit:0;stroke-dasharray:none;stroke-opacity:1;paint-order:markers stroke fill"
       d="m 600.49106,486.30172 -7.52913,41.23669"
       id="path17" /><path
       style="opacity:1;fill:#e4e7e6;fill-opacity:1;stroke:#000000;stroke-width:6.0008;stroke-linecap:square;stroke-linejoin:round;stroke-miterlimit:0;stroke-dasharray:none;stroke-opacity:1;paint-order:markers stroke fill"
       d="m 520.63404,505.88462 152.1849,2.07092"
       id="path19" /><path
       style="display:inline;opacity:1;fill:#e4e7e6;fill-opacity:1;stroke:#000000;stroke-width:18.0025;stroke-linecap:square;stroke-linejoin:round;stroke-miterlimit:0;stroke-dasharray:none;stroke-dashoffset:0;stroke-opacity:1;paint-order:markers stroke fill"
       d="m 517.59308,365.04759 c 0,0 10.41182,51.13292 40.50515,48.68287 30.09333,-2.45009 66.42212,-17.19831 61.96166,-37.24812 -4.46048,-20.04982 -18.47873,-48.29416 -44.42948,-45.11768 -25.95076,3.17649 -58.03733,22.72291 -58.03733,33.68293 z"
       id="path21" /><path
       style="display:inline;opacity:1;fill:#e4e7e6;fill-opacity:1;stroke:#000000;stroke-width:18.0025;stroke-linecap:square;stroke-linejoin:round;stroke-miterlimit:0;stroke-dasharray:none;stroke-dashoffset:0;stroke-opacity:1;paint-order:markers stroke fill"
       d="m 779.73561,365.04759 c 0,0 -10.41182,51.13292 -40.50514,48.68287 -30.09333,-2.45009 -66.42212,-17.19831 -61.96166,-37.24812 4.46048,-20.04982 18.47872,-48.29416 44.42948,-45.11768 25.95075,3.17649 58.03732,22.72291 58.03732,33.68293 z"
       id="path22" /><path
       style="opacity:1;fill:#151911;fill-opacity:1;stroke:#000000;stroke-width:0;stroke-linecap:square;stroke-linejoin:round;stroke-miterlimit:0;stroke-dasharray:none;stroke-dashoffset:0;stroke-opacity:1;paint-order:markers stroke fill"
       d="m 559.50579,368.3292 c 0,0 -6.72894,30.26432 8.36021,27.49246 15.08914,-2.77188 25.81975,-15.04452 21.88179,-25.97589 -3.93795,-10.93132 -28.74136,-8.75846 -30.242,-1.51657 z"
       id="path23" /><path
       style="opacity:1;fill:#151911;fill-opacity:1;stroke:#000000;stroke-width:0;stroke-linecap:square;stroke-linejoin:round;stroke-miterlimit:0;stroke-dasharray:none;stroke-dashoffset:0;stroke-opacity:1;paint-order:markers stroke fill"
       d="m 713.53883,368.3292 c 0,0 -6.72892,30.26432 8.36021,27.49246 15.08914,-2.77188 25.81976,-15.04452 21.88178,-25.97589 -3.93796,-10.93132 -28.74135,-8.75846 -30.24199,-1.51657 z"
       id="path24" /><path
       style="opacity:1;fill:#151911;fill-opacity:1;stroke:#000000;stroke-width:18.0025;stroke-linecap:square;stroke-linejoin:round;stroke-miterlimit:0;stroke-dasharray:none;stroke-dashoffset:0;stroke-opacity:1;paint-order:markers stroke fill"
       d="m 469.8535,356.24453 c 0,0 171.90338,28.82102 163.44122,20.7858 -8.46214,-8.03523 -45.47129,-78.29719 -141.52755,-72.59098 z"
       id="path25" /><path
       style="opacity:1;fill:#151911;fill-opacity:1;stroke:#000000;stroke-width:18.0025;stroke-linecap:square;stroke-linejoin:round;stroke-miterlimit:0;stroke-dasharray:none;stroke-dashoffset:0;stroke-opacity:1;paint-order:markers stroke fill"
       d="m 826.4371,355.60256 c 0,0 -171.90334,28.82103 -163.44118,20.78579 8.46212,-8.0352 45.47128,-78.29719 141.52753,-72.59097 z"
       id="path26" /><path
       style="opacity:1;fill:#152711;fill-opacity:1;stroke:#000000;stroke-width:18.0025;stroke-linecap:square;stroke-linejoin:round;stroke-miterlimit:0;stroke-dasharray:none;stroke-dashoffset:0;stroke-opacity:1;paint-order:markers stroke fill"
       d="m 225.6205,229.78653 c -9.97242,44.5504 39.98962,88.02309 24.66809,140.03763 -0.70271,2.38559 11.50482,14.11153 11.50482,14.11153 19.00868,-4.62754 18.65369,-91.74538 41.61505,-118.57715 22.05988,-25.77827 84.47803,146.34253 100.53147,105.04286 16.05341,-41.29963 37.83756,-168.43058 73.92143,-130.53487 36.08386,37.89574 184.15865,120.38735 184.15865,120.38735 0,0 -71.22029,-153.06081 -62.56811,-142.94211 89.45654,104.61913 170.16036,9.42736 210.00161,92.651 46.03543,96.16259 52.67671,-116.03447 25.77143,-146.91002 C 775.4696,94.479712 659.35077,-25.3223 516.79349,-9.3270995 365.42862,7.6563037 243.14787,92.854662 233.92806,163.08364 c -9.21985,70.22896 -8.30766,66.70289 -8.30766,66.70289 z"
       id="path27" /></g></svg>
