<?xml version="1.0" encoding="UTF-8" standalone="no"?>
<!-- Created with Inkscape (http://www.inkscape.org/) -->

<svg
   width="512mm"
   height="512mm"
   viewBox="0 0 512 512"
   version="1.1"
   id="svg1"
   xml:space="preserve"
   sodipodi:docname="ak48.svg"
   inkscape:version="1.3.2 (091e20ef0f, 2023-11-25)"
   xmlns:inkscape="http://www.inkscape.org/namespaces/inkscape"
   xmlns:sodipodi="http://sodipodi.sourceforge.net/DTD/sodipodi-0.dtd"
   xmlns="http://www.w3.org/2000/svg"
   xmlns:svg="http://www.w3.org/2000/svg"><sodipodi:namedview
     id="namedview1"
     pagecolor="#ffffff"
     bordercolor="#111111"
     borderopacity="1"
     inkscape:showpageshadow="0"
     inkscape:pageopacity="0"
     inkscape:pagecheckerboard="1"
     inkscape:deskcolor="#d1d1d1"
     inkscape:document-units="mm"
     inkscape:zoom="0.26708955"
     inkscape:cx="355.68595"
     inkscape:cy="1579.9944"
     inkscape:window-width="1920"
     inkscape:window-height="1008"
     inkscape:window-x="0"
     inkscape:window-y="0"
     inkscape:window-maximized="1"
     inkscape:current-layer="layer1" /><defs
     id="defs1" /><g
     inkscape:label="Layer 1"
     inkscape:groupmode="layer"
     id="layer1"><path
       style="fill:#9a623c;fill-opacity:1;stroke:#000000;stroke-width:8;stroke-linecap:square;stroke-linejoin:round;stroke-miterlimit:0;stroke-dasharray:none;stroke-opacity:0.99484706;paint-order:markers stroke fill"
       d="m 28.537323,203.03829 c 0,0 -6.497207,94.52538 0,93.39532 6.497206,-1.13007 128.672057,-51.16181 128.672057,-59.61672 0,-8.45491 4.66251,-42.18153 -2.25738,-38.76126 -6.91989,3.42028 -43.85609,17.10136 -48.10544,12.21448 -4.24935,-4.88688 -31.244985,-12.72615 -78.309237,-7.23182 z"
       id="path1" /><path
       style="opacity:1;fill:#9a623c;fill-opacity:1;stroke:#000000;stroke-width:8;stroke-linecap:square;stroke-linejoin:round;stroke-miterlimit:0;stroke-dasharray:none;stroke-opacity:1;paint-order:markers stroke fill"
       d="m 159.15073,237.90454 c 0,0 -31.31054,51.96899 -32.55278,56.36335 -1.24225,4.39435 3.78829,21.47519 14.44175,22.56012 10.65346,1.08489 24.0623,4.71037 28.04213,-0.36119 3.97982,-5.07158 25.69445,-58.55643 24.87221,-61.82073 -0.82223,-3.26431 1.66773,-14.60457 -1.29012,-13.8179 -2.95785,0.78666 -33.51319,-2.92365 -33.51319,-2.92365 z"
       id="path2" /><path
       style="opacity:1;fill:#1a1a1a;fill-opacity:1;stroke:#000000;stroke-width:9;stroke-linecap:square;stroke-linejoin:round;stroke-miterlimit:0;stroke-dasharray:none;stroke-opacity:1;paint-order:markers stroke fill"
       d="m 158.01246,200.92866 c 0,0 7.81464,-17.8976 12.48262,-18.00841 4.66799,-0.11082 103.72453,0.0834 105.61662,-2.10279 1.89212,-2.18623 -0.32559,-14.90144 3.14391,-13.01481 3.46954,1.88662 27.84512,17.82508 35.17683,17.64176 7.33169,-0.18333 81.28344,-4.34512 81.59401,-2.56931 0.31057,1.7758 0.4159,47.83866 0.4159,47.83866 0,0 -19.66383,6.95546 -28.59209,5.47927 -8.92829,-1.47619 -26.3238,-7.28791 -32.54322,-6.24131 -6.21943,1.04661 -53.37813,17.29153 -70.65598,13.71529 -17.27784,-3.57623 -37.29738,-1.15879 -36.28498,2.56384 1.0124,3.72262 7.32623,19.55028 3.68706,19.04407 -3.63917,-0.5062 -40.12868,0.10945 -39.66352,-3.52288 0.46515,-3.63233 5.4519,-18.8238 0.26198,-20.67212 -5.3969,-1.92204 -35.64881,-2.20744 -34.80879,-4.77401 0.84002,-2.56658 0.16965,-35.37725 0.16965,-35.37725 z"
       id="path3"
       sodipodi:nodetypes="cssssscssssssssc" /><path
       style="opacity:1;fill:#181818;fill-opacity:1;stroke:#000000;stroke-width:9;stroke-linecap:square;stroke-linejoin:round;stroke-miterlimit:0;stroke-dasharray:none;stroke-opacity:1;paint-order:markers stroke fill"
       d="m 395.64749,189.32163 13.89724,-0.36118 12.40874,22.15925 34.13432,-2.27243 8.96247,-27.81501 5.38216,-0.53767 -0.29689,26.57141 15.88238,-0.3475 0.2531,14.73727 c 0,0 -13.25698,-4.13716 -15.06151,0.64301 -1.80454,4.78017 -1.62806,7.29475 -1.62806,7.29475 l -74.43605,1.05071 z"
       id="path4" /><path
       style="opacity:1;fill:#333333;fill-opacity:1;stroke:#000000;stroke-width:10;stroke-linecap:square;stroke-linejoin:round;stroke-miterlimit:0;stroke-dasharray:none;stroke-opacity:1;paint-order:markers stroke fill"
       d="m 231.00243,244.191 35.34646,0.0807 c 0,0 4.38616,41.11987 10.73145,50.15349 6.34529,9.03364 31.36252,33.17801 29.63323,35.12619 -1.72929,1.9482 -21.87332,28.91226 -21.87332,28.91226 0,0 -27.85059,-26.2595 -35.9238,-42.67406 -8.07321,-16.41457 -17.91402,-71.5986 -17.91402,-71.5986 z"
       id="path5" /><path
       style="opacity:1;fill:#999999;fill-opacity:1;stroke:#000000;stroke-width:4.50001;stroke-linecap:square;stroke-linejoin:round;stroke-miterlimit:0;stroke-dasharray:none;stroke-opacity:1;paint-order:markers stroke fill"
       d="m 244.84632,185.89999 -3.66242,23.48358 48.12458,-2.93322 1.56922,-18.52146 z"
       id="path6" /><path
       style="opacity:1;fill:none;fill-opacity:0;stroke:#000000;stroke-width:4.50001;stroke-linecap:square;stroke-linejoin:round;stroke-miterlimit:0;stroke-dasharray:none;stroke-opacity:1;paint-order:markers stroke fill"
       d="m 39.857113,202.01084 c 0,0 -3.759562,71.78602 -2.461228,74.25546"
       id="path10" /><path
       style="opacity:1;fill:none;fill-opacity:1;stroke:#000000;stroke-width:5;stroke-linecap:square;stroke-linejoin:round;stroke-miterlimit:0;stroke-dasharray:none;stroke-opacity:1;paint-order:markers stroke fill"
       d="m 290.96116,348.03456 c 0,0 -27.63989,-24.09651 -33.32302,-39.43848 -5.68313,-15.34197 -14.68802,-47.37624 -14.68802,-47.37624"
       id="path16" /><path
       style="opacity:1;fill:none;fill-opacity:1;stroke:#000000;stroke-width:4.66411;stroke-linecap:square;stroke-linejoin:round;stroke-miterlimit:0;stroke-dasharray:none;stroke-opacity:1;paint-order:markers stroke fill"
       d="m 298.6986,339.25604 c 0,0 -26.49147,-21.87669 -31.93848,-35.80533 -5.447,-13.92863 -14.07774,-43.01184 -14.07774,-43.01184"
       id="path17" /><path
       style="opacity:1;fill:#9a623c;fill-opacity:1;stroke:#000000;stroke-width:8;stroke-linecap:square;stroke-linejoin:round;stroke-miterlimit:0;stroke-dasharray:none;stroke-opacity:1;paint-order:markers stroke fill"
       d="m 327.35149,206.65283 -0.74152,-24.195 70.55933,-0.8787 -0.0237,21.91063 z"
       id="path19"
       sodipodi:nodetypes="ccccc" /><path
       style="opacity:1;fill:#9a623c;fill-opacity:1;stroke:#000000;stroke-width:8;stroke-linecap:square;stroke-linejoin:bevel;stroke-miterlimit:0;stroke-dasharray:none;stroke-opacity:1;paint-order:markers stroke fill"
       d="m 311.48602,244.84288 c 0,0 -9.3944,-35.95629 -3.18855,-37.21681 6.20588,-1.26052 88.85174,-5.1156 88.85174,-1.59911 0,3.5165 3.68967,27.24099 0.21669,28.33415 -3.47294,1.09316 -18.89328,6.99236 -24.99854,5.61866 -6.10526,-1.37371 -34.35525,-9.8965 -36.22427,-8.20935 -1.86901,1.68714 -24.65707,13.07246 -24.65707,13.07246 z"
       id="path18" /></g></svg>
